<svg width="136" height="109" viewBox="0 0 136 109" fill="none" xmlns="http://www.w3.org/2000/svg">
<path d="M79.4271 39.81C71.0471 39.86 62.5371 39.48 54.5771 37.26C46.6171 35.04 39.5771 30.88 33.1771 26.01C28.9871 22.84 25.1771 20.32 19.7371 20.7C14.4173 20.9838 9.32991 22.9717 5.22709 26.37C-1.69291 32.37 -0.642905 43.62 2.11709 51.51C6.27709 63.37 18.9371 71.62 29.6871 76.99C42.1171 83.19 55.7671 86.8 69.4571 88.87C81.4571 90.7 96.8571 92.02 107.257 84.19C116.807 76.99 119.427 60.55 117.087 49.46C116.52 46.1779 114.774 43.2158 112.177 41.13C105.467 36.23 95.4671 39.51 87.9271 39.67C85.1271 39.73 82.2871 39.8 79.4271 39.81Z" fill="#272933"/>
<path d="M38.5671 1V5.31" stroke="#4A5059" stroke-linecap="round" stroke-linejoin="round"/>
<path d="M36.4171 3.1499H40.7171" stroke="#4A5059" stroke-linecap="round" stroke-linejoin="round"/>
<path d="M120.147 86.71V91.01" stroke="#4A5059" stroke-linecap="round" stroke-linejoin="round"/>
<path d="M117.997 88.8599H122.297" stroke="#4A5059" stroke-linecap="round" stroke-linejoin="round"/>
<path d="M6.07705 68.1399C6.61828 68.1399 7.05704 67.7012 7.05704 67.1599C7.05704 66.6187 6.61828 66.1799 6.07705 66.1799C5.53581 66.1799 5.09705 66.6187 5.09705 67.1599C5.09705 67.7012 5.53581 68.1399 6.07705 68.1399Z" fill="#4A5059"/>
<path d="M89.517 5.44999C90.0583 5.44999 90.497 5.01123 90.497 4.46999C90.497 3.92875 90.0583 3.48999 89.517 3.48999C88.9758 3.48999 88.537 3.92875 88.537 4.46999C88.537 5.01123 88.9758 5.44999 89.517 5.44999Z" fill="#4A5059"/>
<path d="M62.357 108.31C82.6259 108.31 99.057 107.289 99.057 106.03C99.057 104.771 82.6259 103.75 62.357 103.75C42.0882 103.75 25.657 104.771 25.657 106.03C25.657 107.289 42.0882 108.31 62.357 108.31Z" fill="#272933"/>
<path d="M34.0871 12.6799H87.3871C88.7132 12.6799 89.9849 13.2067 90.9226 14.1444C91.8603 15.0821 92.3871 16.3539 92.3871 17.6799V81.0899C92.3871 82.416 91.8603 83.6878 90.9226 84.6255C89.9849 85.5631 88.7132 86.0899 87.3871 86.0899H27.2571C25.931 86.0899 24.6592 85.5631 23.7215 84.6255C22.7839 83.6878 22.2571 82.416 22.2571 81.0899V24.6299L34.0871 12.6799Z" fill="#4A5059" stroke="#4A5059" stroke-miterlimit="10"/>
<path d="M92.1471 43.59H37.1871V86.71H92.1471V43.59Z" fill="#2D333E" stroke="#4A5059" stroke-miterlimit="10"/>
<path d="M22.2571 24.6299H31.9471C32.229 24.6299 32.5081 24.5743 32.7683 24.4661C33.0286 24.3579 33.265 24.1994 33.4638 23.9996C33.6627 23.7998 33.8201 23.5627 33.9271 23.3019C34.034 23.0412 34.0884 22.7618 34.0871 22.4799V12.6799L22.2571 24.6299Z" fill="#4A5059" stroke="#2D333E" stroke-miterlimit="10"/>
<path d="M91.8771 29.8099H37.5171C35.4018 29.8099 33.6871 31.5247 33.6871 33.6399V45.2699C33.6871 47.3852 35.4018 49.0999 37.5171 49.0999H91.8771C93.9923 49.0999 95.7071 47.3852 95.7071 45.2699V33.6399C95.7071 31.5247 93.9923 29.8099 91.8771 29.8099Z" fill="#2D333E" stroke="#4A5059" stroke-miterlimit="10"/>
<path d="M44.247 42.82C46.0917 42.82 47.587 41.3246 47.587 39.48C47.587 37.6353 46.0917 36.14 44.247 36.14C42.4024 36.14 40.907 37.6353 40.907 39.48C40.907 41.3246 42.4024 42.82 44.247 42.82Z" fill="#2D333E" stroke="#4A5059" stroke-miterlimit="10"/>
<path d="M54.7471 42.82C56.5917 42.82 58.0871 41.3246 58.0871 39.48C58.0871 37.6353 56.5917 36.14 54.7471 36.14C52.9025 36.14 51.4071 37.6353 51.4071 39.48C51.4071 41.3246 52.9025 42.82 54.7471 42.82Z" fill="#2D333E" stroke="#4A5059" stroke-miterlimit="10"/>
<path d="M65.2371 42.82C67.0817 42.82 68.5771 41.3246 68.5771 39.48C68.5771 37.6353 67.0817 36.14 65.2371 36.14C63.3925 36.14 61.8971 37.6353 61.8971 39.48C61.8971 41.3246 63.3925 42.82 65.2371 42.82Z" fill="#2D333E" stroke="#4A5059" stroke-miterlimit="10"/>
<path d="M91.8771 51.2H37.5171C35.4018 51.2 33.6871 52.9147 33.6871 55.0299V66.66C33.6871 68.7752 35.4018 70.49 37.5171 70.49H91.8771C93.9923 70.49 95.7071 68.7752 95.7071 66.66V55.0299C95.7071 52.9147 93.9923 51.2 91.8771 51.2Z" fill="#2D333E" stroke="#4A5059" stroke-miterlimit="10"/>
<path d="M44.247 64.2099C46.0917 64.2099 47.587 62.7145 47.587 60.8699C47.587 59.0253 46.0917 57.5299 44.247 57.5299C42.4024 57.5299 40.907 59.0253 40.907 60.8699C40.907 62.7145 42.4024 64.2099 44.247 64.2099Z" fill="#2D333E" stroke="#4A5059" stroke-miterlimit="10"/>
<path d="M54.7471 64.2099C56.5917 64.2099 58.0871 62.7145 58.0871 60.8699C58.0871 59.0253 56.5917 57.5299 54.7471 57.5299C52.9025 57.5299 51.4071 59.0253 51.4071 60.8699C51.4071 62.7145 52.9025 64.2099 54.7471 64.2099Z" fill="#2D333E" stroke="#4A5059" stroke-miterlimit="10"/>
<path d="M65.2371 64.2099C67.0817 64.2099 68.5771 62.7145 68.5771 60.8699C68.5771 59.0253 67.0817 57.5299 65.2371 57.5299C63.3925 57.5299 61.8971 59.0253 61.8971 60.8699C61.8971 62.7145 63.3925 64.2099 65.2371 64.2099Z" fill="#2D333E" stroke="#4A5059" stroke-miterlimit="10"/>
<path d="M91.8771 72.58H37.5171C35.4018 72.58 33.6871 74.2947 33.6871 76.41V88.04C33.6871 90.1552 35.4018 91.87 37.5171 91.87H91.8771C93.9923 91.87 95.7071 90.1552 95.7071 88.04V76.41C95.7071 74.2947 93.9923 72.58 91.8771 72.58Z" fill="#2D333E" stroke="#4A5059" stroke-miterlimit="10"/>
<path d="M44.247 85.5899C46.0917 85.5899 47.587 84.0945 47.587 82.2499C47.587 80.4053 46.0917 78.9099 44.247 78.9099C42.4024 78.9099 40.907 80.4053 40.907 82.2499C40.907 84.0945 42.4024 85.5899 44.247 85.5899Z" fill="#2D333E" stroke="#4A5059" stroke-miterlimit="10"/>
<path d="M54.7471 85.5899C56.5917 85.5899 58.0871 84.0945 58.0871 82.2499C58.0871 80.4053 56.5917 78.9099 54.7471 78.9099C52.9025 78.9099 51.4071 80.4053 51.4071 82.2499C51.4071 84.0945 52.9025 85.5899 54.7471 85.5899Z" fill="#2D333E" stroke="#4A5059" stroke-miterlimit="10"/>
<path d="M65.2371 85.5899C67.0817 85.5899 68.5771 84.0945 68.5771 82.2499C68.5771 80.4053 67.0817 78.9099 65.2371 78.9099C63.3925 78.9099 61.8971 80.4053 61.8971 82.2499C61.8971 84.0945 63.3925 85.5899 65.2371 85.5899Z" fill="#2D333E" stroke="#4A5059" stroke-miterlimit="10"/>
<path d="M96.7971 54.17C108.246 54.17 117.527 44.8888 117.527 33.44C117.527 21.9911 108.246 12.71 96.7971 12.71C85.3482 12.71 76.0671 21.9911 76.0671 33.44C76.0671 44.8888 85.3482 54.17 96.7971 54.17Z" fill="#2D333E" stroke="#4A5059" stroke-miterlimit="10"/>
<path d="M111.517 48.4799L117.037 54.0099" stroke="#4A5059" stroke-miterlimit="10"/>
<path d="M116.411 71.3299L114.697 73.1225C113.926 73.929 113.955 75.2076 114.761 75.9785L129.652 90.2133C130.459 90.9842 131.737 90.9554 132.508 90.149L134.222 88.3563C134.993 87.5499 134.964 86.2713 134.158 85.5004L119.267 71.2656C118.46 70.4947 117.182 70.5235 116.411 71.3299Z" fill="#2D333E" stroke="#4A5059" stroke-miterlimit="10"/>
</svg>
